<svg width="140" height="31" viewBox="0 0 140 31" fill="none" xmlns="http://www.w3.org/2000/svg">
<g id="Vector">
<path d="M2.44014 29.0242C3.54439 29.1145 4.3475 29.6108 4.14672 30.1071C3.94595 30.6034 2.84168 30.9643 1.73743 30.8741C0.633186 30.7838 -0.169914 30.2876 0.0308579 29.7913C0.23163 29.2499 1.3359 28.934 2.44014 29.0242Z" fill="black"/>
<path d="M2.44014 29.0242C3.54439 29.1145 4.3475 29.6108 4.14672 30.1071C3.94595 30.6034 2.84168 30.9643 1.73743 30.8741C0.633186 30.7838 -0.169914 30.2876 0.0308579 29.7913C0.23163 29.2499 1.3359 28.934 2.44014 29.0242Z" fill="url(#paint0_linear_314_719)"/>
<path d="M2.44014 21.7604C3.54439 21.8506 4.3475 22.3469 4.14672 22.8432C3.94595 23.3395 2.84168 23.7004 1.73743 23.6102C0.633186 23.5199 -0.169914 23.0236 0.0308579 22.5274C0.23163 22.0311 1.3359 21.6701 2.44014 21.7604Z" fill="black"/>
<path d="M2.44014 21.7604C3.54439 21.8506 4.3475 22.3469 4.14672 22.8432C3.94595 23.3395 2.84168 23.7004 1.73743 23.6102C0.633186 23.5199 -0.169914 23.0236 0.0308579 22.5274C0.23163 22.0311 1.3359 21.6701 2.44014 21.7604Z" fill="url(#paint1_linear_314_719)"/>
<path d="M2.44014 14.5417C3.54439 14.6319 4.3475 15.1282 4.14672 15.6245C3.94595 16.1208 2.84168 16.4817 1.73743 16.3915C0.633186 16.3013 -0.169914 15.805 0.0308579 15.3087C0.23163 14.7673 1.3359 14.4063 2.44014 14.5417Z" fill="black"/>
<path d="M2.44014 14.5417C3.54439 14.6319 4.3475 15.1282 4.14672 15.6245C3.94595 16.1208 2.84168 16.4817 1.73743 16.3915C0.633186 16.3013 -0.169914 15.805 0.0308579 15.3087C0.23163 14.7673 1.3359 14.4063 2.44014 14.5417Z" fill="url(#paint2_linear_314_719)"/>
<path d="M2.44014 7.27779C3.54439 7.36802 4.3475 7.86435 4.14672 8.36064C3.94595 8.85693 2.84168 9.21786 1.73743 9.12763C0.633186 9.03739 -0.169914 8.54111 0.0308579 8.04482C0.23163 7.50342 1.3359 7.18755 2.44014 7.27779Z" fill="black"/>
<path d="M2.44014 7.27779C3.54439 7.36802 4.3475 7.86435 4.14672 8.36064C3.94595 8.85693 2.84168 9.21786 1.73743 9.12763C0.633186 9.03739 -0.169914 8.54111 0.0308579 8.04482C0.23163 7.50342 1.3359 7.18755 2.44014 7.27779Z" fill="url(#paint3_linear_314_719)"/>
<path d="M2.44014 0.0138686C3.54439 0.104102 4.3475 0.6004 4.14672 1.09669C3.94595 1.59297 2.84168 1.95389 1.73743 1.86365C0.633186 1.77342 -0.169914 1.27715 0.0308579 0.780864C0.23163 0.284576 1.3359 -0.0763654 2.44014 0.0138686Z" fill="black"/>
<path d="M2.44014 0.0138686C3.54439 0.104102 4.3475 0.6004 4.14672 1.09669C3.94595 1.59297 2.84168 1.95389 1.73743 1.86365C0.633186 1.77342 -0.169914 1.27715 0.0308579 0.780864C0.23163 0.284576 1.3359 -0.0763654 2.44014 0.0138686Z" fill="url(#paint4_linear_314_719)"/>
<path d="M15.9923 29.0242C17.0965 29.1145 17.8996 29.6108 17.6989 30.1071C17.4981 30.6034 16.3938 30.9643 15.2896 30.8741C14.1853 30.7838 13.3822 30.2876 13.5829 29.7913C13.7837 29.2499 14.888 28.934 15.9923 29.0242Z" fill="black"/>
<path d="M15.9923 29.0242C17.0965 29.1145 17.8996 29.6108 17.6989 30.1071C17.4981 30.6034 16.3938 30.9643 15.2896 30.8741C14.1853 30.7838 13.3822 30.2876 13.5829 29.7913C13.7837 29.2499 14.888 28.934 15.9923 29.0242Z" fill="url(#paint5_linear_314_719)"/>
<path d="M15.9923 21.7604C17.0965 21.8506 17.8996 22.3469 17.6989 22.8432C17.4981 23.3395 16.3938 23.7004 15.2896 23.6102C14.1853 23.5199 13.3822 23.0236 13.5829 22.5274C13.7837 22.0311 14.888 21.6701 15.9923 21.7604Z" fill="black"/>
<path d="M15.9923 21.7604C17.0965 21.8506 17.8996 22.3469 17.6989 22.8432C17.4981 23.3395 16.3938 23.7004 15.2896 23.6102C14.1853 23.5199 13.3822 23.0236 13.5829 22.5274C13.7837 22.0311 14.888 21.6701 15.9923 21.7604Z" fill="url(#paint6_linear_314_719)"/>
<path d="M15.9923 14.5417C17.0965 14.6319 17.8996 15.1282 17.6989 15.6245C17.4981 16.1208 16.3938 16.4817 15.2896 16.3915C14.1853 16.3013 13.3822 15.805 13.5829 15.3087C13.7837 14.7673 14.888 14.4063 15.9923 14.5417Z" fill="black"/>
<path d="M15.9923 14.5417C17.0965 14.6319 17.8996 15.1282 17.6989 15.6245C17.4981 16.1208 16.3938 16.4817 15.2896 16.3915C14.1853 16.3013 13.3822 15.805 13.5829 15.3087C13.7837 14.7673 14.888 14.4063 15.9923 14.5417Z" fill="url(#paint7_linear_314_719)"/>
<path d="M15.9923 7.27779C17.0965 7.36802 17.8996 7.86435 17.6989 8.36064C17.4981 8.85693 16.3938 9.21786 15.2896 9.12763C14.1853 9.03739 13.3822 8.54111 13.5829 8.04482C13.7837 7.50342 14.888 7.18755 15.9923 7.27779Z" fill="black"/>
<path d="M15.9923 7.27779C17.0965 7.36802 17.8996 7.86435 17.6989 8.36064C17.4981 8.85693 16.3938 9.21786 15.2896 9.12763C14.1853 9.03739 13.3822 8.54111 13.5829 8.04482C13.7837 7.50342 14.888 7.18755 15.9923 7.27779Z" fill="url(#paint8_linear_314_719)"/>
<path d="M15.9923 0.0139237C17.0965 0.104157 17.8996 0.600455 17.6989 1.09674C17.4981 1.59303 16.3938 1.95394 15.2896 1.86371C14.1853 1.77347 13.3822 1.2772 13.5829 0.780919C13.7837 0.284631 14.888 -0.0763103 15.9923 0.0139237Z" fill="black"/>
<path d="M15.9923 0.0139237C17.0965 0.104157 17.8996 0.600455 17.6989 1.09674C17.4981 1.59303 16.3938 1.95394 15.2896 1.86371C14.1853 1.77347 13.3822 1.2772 13.5829 0.780919C13.7837 0.284631 14.888 -0.0763103 15.9923 0.0139237Z" fill="url(#paint9_linear_314_719)"/>
<path d="M29.6443 29.0242C30.7485 29.1145 31.5516 29.6108 31.3509 30.1071C31.1501 30.6034 30.0458 30.9643 28.9416 30.8741C27.8373 30.7838 27.0344 30.2876 27.2351 29.7913C27.4359 29.2499 28.4397 28.934 29.6443 29.0242Z" fill="black"/>
<path d="M29.6443 29.0242C30.7485 29.1145 31.5516 29.6108 31.3509 30.1071C31.1501 30.6034 30.0458 30.9643 28.9416 30.8741C27.8373 30.7838 27.0344 30.2876 27.2351 29.7913C27.4359 29.2499 28.4397 28.934 29.6443 29.0242Z" fill="url(#paint10_linear_314_719)"/>
<path d="M29.6443 21.7604C30.7485 21.8506 31.5516 22.3469 31.3509 22.8432C31.1501 23.3395 30.0458 23.7004 28.9416 23.6102C27.8373 23.5199 27.0344 23.0236 27.2351 22.5274C27.4359 22.0311 28.4397 21.6701 29.6443 21.7604Z" fill="black"/>
<path d="M29.6443 21.7604C30.7485 21.8506 31.5516 22.3469 31.3509 22.8432C31.1501 23.3395 30.0458 23.7004 28.9416 23.6102C27.8373 23.5199 27.0344 23.0236 27.2351 22.5274C27.4359 22.0311 28.4397 21.6701 29.6443 21.7604Z" fill="url(#paint11_linear_314_719)"/>
<path d="M29.6443 14.5417C30.7485 14.6319 31.5516 15.1282 31.3509 15.6245C31.1501 16.1208 30.0458 16.4817 28.9416 16.3915C27.8373 16.3013 27.0344 15.805 27.2351 15.3087C27.4359 14.7673 28.4397 14.4063 29.6443 14.5417Z" fill="black"/>
<path d="M29.6443 14.5417C30.7485 14.6319 31.5516 15.1282 31.3509 15.6245C31.1501 16.1208 30.0458 16.4817 28.9416 16.3915C27.8373 16.3013 27.0344 15.805 27.2351 15.3087C27.4359 14.7673 28.4397 14.4063 29.6443 14.5417Z" fill="url(#paint12_linear_314_719)"/>
<path d="M29.6443 7.27779C30.7485 7.36802 31.5516 7.86435 31.3509 8.36064C31.1501 8.85693 30.0458 9.21786 28.9416 9.12763C27.8373 9.03739 27.0344 8.54111 27.2351 8.04482C27.4359 7.50342 28.4397 7.18755 29.6443 7.27779Z" fill="black"/>
<path d="M29.6443 7.27779C30.7485 7.36802 31.5516 7.86435 31.3509 8.36064C31.1501 8.85693 30.0458 9.21786 28.9416 9.12763C27.8373 9.03739 27.0344 8.54111 27.2351 8.04482C27.4359 7.50342 28.4397 7.18755 29.6443 7.27779Z" fill="url(#paint13_linear_314_719)"/>
<path d="M29.6443 0.0139237C30.7485 0.104157 31.5516 0.600455 31.3509 1.09674C31.1501 1.59303 30.0458 1.95394 28.9416 1.86371C27.8373 1.77347 27.0344 1.2772 27.2351 0.780919C27.4359 0.284631 28.4397 -0.0763103 29.6443 0.0139237Z" fill="black"/>
<path d="M29.6443 0.0139237C30.7485 0.104157 31.5516 0.600455 31.3509 1.09674C31.1501 1.59303 30.0458 1.95394 28.9416 1.86371C27.8373 1.77347 27.0344 1.2772 27.2351 0.780919C27.4359 0.284631 28.4397 -0.0763103 29.6443 0.0139237Z" fill="url(#paint14_linear_314_719)"/>
<path d="M43.1964 29.0242C44.3006 29.1145 45.1037 29.6108 44.903 30.1071C44.7022 30.6034 43.5979 30.9643 42.4937 30.8741C41.3894 30.7838 40.5865 30.2876 40.7872 29.7913C40.988 29.2499 42.0921 28.934 43.1964 29.0242Z" fill="black"/>
<path d="M43.1964 29.0242C44.3006 29.1145 45.1037 29.6108 44.903 30.1071C44.7022 30.6034 43.5979 30.9643 42.4937 30.8741C41.3894 30.7838 40.5865 30.2876 40.7872 29.7913C40.988 29.2499 42.0921 28.934 43.1964 29.0242Z" fill="url(#paint15_linear_314_719)"/>
<path d="M43.1964 21.7604C44.3006 21.8506 45.1037 22.3469 44.903 22.8432C44.7022 23.3395 43.5979 23.7004 42.4937 23.6102C41.3894 23.5199 40.5865 23.0236 40.7872 22.5274C40.988 22.0311 42.0921 21.6701 43.1964 21.7604Z" fill="black"/>
<path d="M43.1964 21.7604C44.3006 21.8506 45.1037 22.3469 44.903 22.8432C44.7022 23.3395 43.5979 23.7004 42.4937 23.6102C41.3894 23.5199 40.5865 23.0236 40.7872 22.5274C40.988 22.0311 42.0921 21.6701 43.1964 21.7604Z" fill="url(#paint16_linear_314_719)"/>
<path d="M43.1964 14.5417C44.3006 14.6319 45.1037 15.1282 44.903 15.6245C44.7022 16.1208 43.5979 16.4817 42.4937 16.3915C41.3894 16.3013 40.5865 15.805 40.7872 15.3087C40.988 14.7673 42.0921 14.4063 43.1964 14.5417Z" fill="black"/>
<path d="M43.1964 14.5417C44.3006 14.6319 45.1037 15.1282 44.903 15.6245C44.7022 16.1208 43.5979 16.4817 42.4937 16.3915C41.3894 16.3013 40.5865 15.805 40.7872 15.3087C40.988 14.7673 42.0921 14.4063 43.1964 14.5417Z" fill="url(#paint17_linear_314_719)"/>
<path d="M43.1964 7.27779C44.3006 7.36802 45.1037 7.86435 44.903 8.36064C44.7022 8.85693 43.5979 9.21786 42.4937 9.12763C41.3894 9.03739 40.5865 8.54111 40.7872 8.04482C40.988 7.50342 42.0921 7.18755 43.1964 7.27779Z" fill="black"/>
<path d="M43.1964 7.27779C44.3006 7.36802 45.1037 7.86435 44.903 8.36064C44.7022 8.85693 43.5979 9.21786 42.4937 9.12763C41.3894 9.03739 40.5865 8.54111 40.7872 8.04482C40.988 7.50342 42.0921 7.18755 43.1964 7.27779Z" fill="url(#paint18_linear_314_719)"/>
<path d="M43.1964 0.0139237C44.3006 0.104157 45.1037 0.600455 44.903 1.09674C44.7022 1.59303 43.5979 1.95394 42.4937 1.86371C41.3894 1.77347 40.5865 1.2772 40.7872 0.780919C40.988 0.284631 42.0921 -0.0763103 43.1964 0.0139237Z" fill="black"/>
<path d="M43.1964 0.0139237C44.3006 0.104157 45.1037 0.600455 44.903 1.09674C44.7022 1.59303 43.5979 1.95394 42.4937 1.86371C41.3894 1.77347 40.5865 1.2772 40.7872 0.780919C40.988 0.284631 42.0921 -0.0763103 43.1964 0.0139237Z" fill="url(#paint19_linear_314_719)"/>
<path d="M56.7485 29.0242C57.8527 29.1145 58.6558 29.6108 58.4551 30.1071C58.2543 30.6034 57.15 30.9643 56.0458 30.8741C54.9416 30.7838 54.1386 30.2876 54.3393 29.7913C54.5401 29.2499 55.6443 28.934 56.7485 29.0242Z" fill="black"/>
<path d="M56.7485 29.0242C57.8527 29.1145 58.6558 29.6108 58.4551 30.1071C58.2543 30.6034 57.15 30.9643 56.0458 30.8741C54.9416 30.7838 54.1386 30.2876 54.3393 29.7913C54.5401 29.2499 55.6443 28.934 56.7485 29.0242Z" fill="url(#paint20_linear_314_719)"/>
<path d="M56.7485 21.7604C57.8527 21.8506 58.6558 22.3469 58.4551 22.8432C58.2543 23.3395 57.15 23.7004 56.0458 23.6102C54.9416 23.5199 54.1386 23.0236 54.3393 22.5274C54.5401 22.0311 55.6443 21.6701 56.7485 21.7604Z" fill="black"/>
<path d="M56.7485 21.7604C57.8527 21.8506 58.6558 22.3469 58.4551 22.8432C58.2543 23.3395 57.15 23.7004 56.0458 23.6102C54.9416 23.5199 54.1386 23.0236 54.3393 22.5274C54.5401 22.0311 55.6443 21.6701 56.7485 21.7604Z" fill="url(#paint21_linear_314_719)"/>
<path d="M56.7485 14.5417C57.8527 14.6319 58.6558 15.1282 58.4551 15.6245C58.2543 16.1208 57.15 16.4817 56.0458 16.3915C54.9416 16.3013 54.1386 15.805 54.3393 15.3087C54.5401 14.7673 55.6443 14.4063 56.7485 14.5417Z" fill="black"/>
<path d="M56.7485 14.5417C57.8527 14.6319 58.6558 15.1282 58.4551 15.6245C58.2543 16.1208 57.15 16.4817 56.0458 16.3915C54.9416 16.3013 54.1386 15.805 54.3393 15.3087C54.5401 14.7673 55.6443 14.4063 56.7485 14.5417Z" fill="url(#paint22_linear_314_719)"/>
<path d="M56.7485 7.27779C57.8527 7.36802 58.6558 7.86435 58.4551 8.36064C58.2543 8.85693 57.15 9.21786 56.0458 9.12763C54.9416 9.03739 54.1386 8.54111 54.3393 8.04482C54.5401 7.50342 55.6443 7.18755 56.7485 7.27779Z" fill="black"/>
<path d="M56.7485 7.27779C57.8527 7.36802 58.6558 7.86435 58.4551 8.36064C58.2543 8.85693 57.15 9.21786 56.0458 9.12763C54.9416 9.03739 54.1386 8.54111 54.3393 8.04482C54.5401 7.50342 55.6443 7.18755 56.7485 7.27779Z" fill="url(#paint23_linear_314_719)"/>
<path d="M56.7485 0.0139237C57.8527 0.104157 58.6558 0.600455 58.4551 1.09674C58.2543 1.59303 57.15 1.95394 56.0458 1.86371C54.9416 1.77347 54.1386 1.2772 54.3393 0.780919C54.5401 0.284631 55.6443 -0.0763103 56.7485 0.0139237Z" fill="black"/>
<path d="M56.7485 0.0139237C57.8527 0.104157 58.6558 0.600455 58.4551 1.09674C58.2543 1.59303 57.15 1.95394 56.0458 1.86371C54.9416 1.77347 54.1386 1.2772 54.3393 0.780919C54.5401 0.284631 55.6443 -0.0763103 56.7485 0.0139237Z" fill="url(#paint24_linear_314_719)"/>
<path d="M70.4017 29.0242C71.5059 29.1145 72.3089 29.6108 72.1081 30.1071C71.9074 30.6034 70.8031 30.9643 69.6989 30.8741C68.5946 30.7838 67.7916 30.2876 67.9923 29.7913C68.0927 29.2499 69.197 28.934 70.4017 29.0242Z" fill="black"/>
<path d="M70.4017 29.0242C71.5059 29.1145 72.3089 29.6108 72.1081 30.1071C71.9074 30.6034 70.8031 30.9643 69.6989 30.8741C68.5946 30.7838 67.7916 30.2876 67.9923 29.7913C68.0927 29.2499 69.197 28.934 70.4017 29.0242Z" fill="url(#paint25_linear_314_719)"/>
<path d="M70.4017 21.7604C71.5059 21.8506 72.3089 22.3469 72.1081 22.8432C71.9074 23.3395 70.8031 23.7004 69.6989 23.6102C68.5946 23.5199 67.7916 23.0236 67.9923 22.5274C68.0927 22.0311 69.197 21.6701 70.4017 21.7604Z" fill="black"/>
<path d="M70.4017 21.7604C71.5059 21.8506 72.3089 22.3469 72.1081 22.8432C71.9074 23.3395 70.8031 23.7004 69.6989 23.6102C68.5946 23.5199 67.7916 23.0236 67.9923 22.5274C68.0927 22.0311 69.197 21.6701 70.4017 21.7604Z" fill="url(#paint26_linear_314_719)"/>
<path d="M70.4017 14.5417C71.5059 14.6319 72.3089 15.1282 72.1081 15.6245C71.9074 16.1208 70.8031 16.4817 69.6989 16.3915C68.5946 16.3013 67.7916 15.805 67.9923 15.3087C68.0927 14.7673 69.197 14.4063 70.4017 14.5417Z" fill="black"/>
<path d="M70.4017 14.5417C71.5059 14.6319 72.3089 15.1282 72.1081 15.6245C71.9074 16.1208 70.8031 16.4817 69.6989 16.3915C68.5946 16.3013 67.7916 15.805 67.9923 15.3087C68.0927 14.7673 69.197 14.4063 70.4017 14.5417Z" fill="url(#paint27_linear_314_719)"/>
<path d="M70.4017 7.27779C71.5059 7.36802 72.3089 7.86435 72.1081 8.36064C71.9074 8.85693 70.8031 9.21786 69.6989 9.12763C68.5946 9.03739 67.7916 8.54111 67.9923 8.04482C68.0927 7.50342 69.197 7.18755 70.4017 7.27779Z" fill="black"/>
<path d="M70.4017 7.27779C71.5059 7.36802 72.3089 7.86435 72.1081 8.36064C71.9074 8.85693 70.8031 9.21786 69.6989 9.12763C68.5946 9.03739 67.7916 8.54111 67.9923 8.04482C68.0927 7.50342 69.197 7.18755 70.4017 7.27779Z" fill="url(#paint28_linear_314_719)"/>
<path d="M70.4017 0.0139237C71.5059 0.104157 72.3089 0.600455 72.1081 1.09674C71.9074 1.59303 70.8031 1.95394 69.6989 1.86371C68.5946 1.77347 67.7916 1.2772 67.9923 0.780919C68.0927 0.284631 69.197 -0.0763103 70.4017 0.0139237Z" fill="black"/>
<path d="M70.4017 0.0139237C71.5059 0.104157 72.3089 0.600455 72.1081 1.09674C71.9074 1.59303 70.8031 1.95394 69.6989 1.86371C68.5946 1.77347 67.7916 1.2772 67.9923 0.780919C68.0927 0.284631 69.197 -0.0763103 70.4017 0.0139237Z" fill="url(#paint29_linear_314_719)"/>
<path d="M83.9538 29.0242C85.058 29.1145 85.861 29.6108 85.6602 30.1071C85.4595 30.6034 84.3552 30.9643 83.251 30.8741C82.1467 30.7838 81.3437 30.2876 81.5444 29.7913C81.7452 29.2499 82.8495 28.934 83.9538 29.0242Z" fill="black"/>
<path d="M83.9538 29.0242C85.058 29.1145 85.861 29.6108 85.6602 30.1071C85.4595 30.6034 84.3552 30.9643 83.251 30.8741C82.1467 30.7838 81.3437 30.2876 81.5444 29.7913C81.7452 29.2499 82.8495 28.934 83.9538 29.0242Z" fill="url(#paint30_linear_314_719)"/>
<path d="M83.9538 21.7604C85.058 21.8506 85.861 22.3469 85.6602 22.8432C85.4595 23.3395 84.3552 23.7004 83.251 23.6102C82.1467 23.5199 81.3437 23.0236 81.5444 22.5274C81.7452 22.0311 82.8495 21.6701 83.9538 21.7604Z" fill="black"/>
<path d="M83.9538 21.7604C85.058 21.8506 85.861 22.3469 85.6602 22.8432C85.4595 23.3395 84.3552 23.7004 83.251 23.6102C82.1467 23.5199 81.3437 23.0236 81.5444 22.5274C81.7452 22.0311 82.8495 21.6701 83.9538 21.7604Z" fill="url(#paint31_linear_314_719)"/>
<path d="M83.9538 14.5417C85.058 14.6319 85.861 15.1282 85.6602 15.6245C85.4595 16.1208 84.3552 16.4817 83.251 16.3915C82.1467 16.3013 81.3437 15.805 81.5444 15.3087C81.7452 14.7673 82.8495 14.4063 83.9538 14.5417Z" fill="black"/>
<path d="M83.9538 14.5417C85.058 14.6319 85.861 15.1282 85.6602 15.6245C85.4595 16.1208 84.3552 16.4817 83.251 16.3915C82.1467 16.3013 81.3437 15.805 81.5444 15.3087C81.7452 14.7673 82.8495 14.4063 83.9538 14.5417Z" fill="url(#paint32_linear_314_719)"/>
<path d="M83.9538 7.27779C85.058 7.36802 85.861 7.86435 85.6602 8.36064C85.4595 8.85693 84.3552 9.21786 83.251 9.12763C82.1467 9.03739 81.3437 8.54111 81.5444 8.04482C81.7452 7.50342 82.8495 7.18755 83.9538 7.27779Z" fill="black"/>
<path d="M83.9538 7.27779C85.058 7.36802 85.861 7.86435 85.6602 8.36064C85.4595 8.85693 84.3552 9.21786 83.251 9.12763C82.1467 9.03739 81.3437 8.54111 81.5444 8.04482C81.7452 7.50342 82.8495 7.18755 83.9538 7.27779Z" fill="url(#paint33_linear_314_719)"/>
<path d="M83.9538 0.0139237C85.058 0.104157 85.861 0.600455 85.6602 1.09674C85.4595 1.59303 84.3552 1.95394 83.251 1.86371C82.1467 1.77347 81.3437 1.2772 81.5444 0.780919C81.7452 0.284631 82.8495 -0.0763103 83.9538 0.0139237Z" fill="black"/>
<path d="M83.9538 0.0139237C85.058 0.104157 85.861 0.600455 85.6602 1.09674C85.4595 1.59303 84.3552 1.95394 83.251 1.86371C82.1467 1.77347 81.3437 1.2772 81.5444 0.780919C81.7452 0.284631 82.8495 -0.0763103 83.9538 0.0139237Z" fill="url(#paint34_linear_314_719)"/>
<path d="M97.5059 29.0242C98.6101 29.1145 99.4131 29.6108 99.2124 30.1071C99.0116 30.6034 97.9073 30.9643 96.8031 30.8741C95.6988 30.7838 94.8958 30.2876 95.0965 29.7913C95.2973 29.2499 96.4016 28.934 97.5059 29.0242Z" fill="black"/>
<path d="M97.5059 29.0242C98.6101 29.1145 99.4131 29.6108 99.2124 30.1071C99.0116 30.6034 97.9073 30.9643 96.8031 30.8741C95.6988 30.7838 94.8958 30.2876 95.0965 29.7913C95.2973 29.2499 96.4016 28.934 97.5059 29.0242Z" fill="url(#paint35_linear_314_719)"/>
<path d="M97.5059 21.7604C98.6101 21.8506 99.4131 22.3469 99.2124 22.8432C99.0116 23.3395 97.9073 23.7004 96.8031 23.6102C95.6988 23.5199 94.8958 23.0236 95.0965 22.5274C95.2973 22.0311 96.4016 21.6701 97.5059 21.7604Z" fill="black"/>
<path d="M97.5059 21.7604C98.6101 21.8506 99.4131 22.3469 99.2124 22.8432C99.0116 23.3395 97.9073 23.7004 96.8031 23.6102C95.6988 23.5199 94.8958 23.0236 95.0965 22.5274C95.2973 22.0311 96.4016 21.6701 97.5059 21.7604Z" fill="url(#paint36_linear_314_719)"/>
<path d="M97.5059 14.5417C98.6101 14.6319 99.4131 15.1282 99.2124 15.6245C99.0116 16.1208 97.9073 16.4817 96.8031 16.3915C95.6988 16.3013 94.8958 15.805 95.0965 15.3087C95.2973 14.7673 96.4016 14.4063 97.5059 14.5417Z" fill="black"/>
<path d="M97.5059 14.5417C98.6101 14.6319 99.4131 15.1282 99.2124 15.6245C99.0116 16.1208 97.9073 16.4817 96.8031 16.3915C95.6988 16.3013 94.8958 15.805 95.0965 15.3087C95.2973 14.7673 96.4016 14.4063 97.5059 14.5417Z" fill="url(#paint37_linear_314_719)"/>
<path d="M97.5059 7.27779C98.6101 7.36802 99.4131 7.86435 99.2124 8.36064C99.0116 8.85693 97.9073 9.21786 96.8031 9.12763C95.6988 9.03739 94.8958 8.54111 95.0965 8.04482C95.2973 7.50342 96.4016 7.18755 97.5059 7.27779Z" fill="black"/>
<path d="M97.5059 7.27779C98.6101 7.36802 99.4131 7.86435 99.2124 8.36064C99.0116 8.85693 97.9073 9.21786 96.8031 9.12763C95.6988 9.03739 94.8958 8.54111 95.0965 8.04482C95.2973 7.50342 96.4016 7.18755 97.5059 7.27779Z" fill="url(#paint38_linear_314_719)"/>
<path d="M97.5059 0.0139237C98.6101 0.104157 99.4131 0.600455 99.2124 1.09674C99.0116 1.59303 97.9073 1.95394 96.8031 1.86371C95.6988 1.77347 94.8958 1.2772 95.0965 0.780919C95.2973 0.284631 96.4016 -0.0763103 97.5059 0.0139237Z" fill="black"/>
<path d="M97.5059 0.0139237C98.6101 0.104157 99.4131 0.600455 99.2124 1.09674C99.0116 1.59303 97.9073 1.95394 96.8031 1.86371C95.6988 1.77347 94.8958 1.2772 95.0965 0.780919C95.2973 0.284631 96.4016 -0.0763103 97.5059 0.0139237Z" fill="url(#paint39_linear_314_719)"/>
<path d="M111.058 29.0242C112.162 29.1145 112.965 29.6108 112.765 30.1071C112.564 30.6034 111.46 30.9643 110.355 30.8741C109.251 30.7838 108.448 30.2876 108.649 29.7913C108.849 29.2499 109.954 28.934 111.058 29.0242Z" fill="black"/>
<path d="M111.058 29.0242C112.162 29.1145 112.965 29.6108 112.765 30.1071C112.564 30.6034 111.46 30.9643 110.355 30.8741C109.251 30.7838 108.448 30.2876 108.649 29.7913C108.849 29.2499 109.954 28.934 111.058 29.0242Z" fill="url(#paint40_linear_314_719)"/>
<path d="M112.864 22.7078C112.864 22.1846 111.92 21.7604 110.756 21.7604C109.592 21.7604 108.648 22.1846 108.648 22.7078C108.648 23.2311 109.592 23.6553 110.756 23.6553C111.92 23.6553 112.864 23.2311 112.864 22.7078Z" fill="black"/>
<path d="M112.864 22.7078C112.864 22.1846 111.92 21.7604 110.756 21.7604C109.592 21.7604 108.648 22.1846 108.648 22.7078C108.648 23.2311 109.592 23.6553 110.756 23.6553C111.92 23.6553 112.864 23.2311 112.864 22.7078Z" fill="url(#paint41_linear_314_719)"/>
<path d="M112.825 15.3328C112.667 14.8143 111.604 14.4513 110.451 14.522C109.297 14.5926 108.49 15.0702 108.647 15.5886C108.804 16.1071 109.866 16.4701 111.02 16.3994C112.173 16.3288 112.981 15.8513 112.825 15.3328Z" fill="black"/>
<path d="M112.825 15.3328C112.667 14.8143 111.604 14.4513 110.451 14.522C109.297 14.5926 108.49 15.0702 108.647 15.5886C108.804 16.1071 109.866 16.4701 111.02 16.3994C112.173 16.3288 112.981 15.8513 112.825 15.3328Z" fill="url(#paint42_linear_314_719)"/>
<path d="M111.058 7.27779C112.162 7.36802 112.965 7.86435 112.765 8.36064C112.564 8.85693 111.46 9.21786 110.355 9.12763C109.251 9.03739 108.448 8.54111 108.649 8.04482C108.849 7.50342 109.954 7.18755 111.058 7.27779Z" fill="black"/>
<path d="M111.058 7.27779C112.162 7.36802 112.965 7.86435 112.765 8.36064C112.564 8.85693 111.46 9.21786 110.355 9.12763C109.251 9.03739 108.448 8.54111 108.649 8.04482C108.849 7.50342 109.954 7.18755 111.058 7.27779Z" fill="url(#paint43_linear_314_719)"/>
<path d="M111.058 0.0139237C112.162 0.104157 112.965 0.600455 112.765 1.09674C112.564 1.59303 111.46 1.95394 110.355 1.86371C109.251 1.77347 108.448 1.2772 108.649 0.780919C108.849 0.284631 109.954 -0.0763103 111.058 0.0139237Z" fill="black"/>
<path d="M111.058 0.0139237C112.162 0.104157 112.965 0.600455 112.765 1.09674C112.564 1.59303 111.46 1.95394 110.355 1.86371C109.251 1.77347 108.448 1.2772 108.649 0.780919C108.849 0.284631 109.954 -0.0763103 111.058 0.0139237Z" fill="url(#paint44_linear_314_719)"/>
<path d="M124.711 29.0242C125.816 29.1145 126.619 29.6108 126.418 30.1071C126.217 30.6034 125.113 30.9643 124.009 30.8741C122.905 30.7838 122.101 30.2876 122.302 29.7913C122.503 29.2499 123.507 28.934 124.711 29.0242Z" fill="black"/>
<path d="M124.711 29.0242C125.816 29.1145 126.619 29.6108 126.418 30.1071C126.217 30.6034 125.113 30.9643 124.009 30.8741C122.905 30.7838 122.101 30.2876 122.302 29.7913C122.503 29.2499 123.507 28.934 124.711 29.0242Z" fill="url(#paint45_linear_314_719)"/>
<path d="M126.417 22.7078C126.417 22.1846 125.473 21.7604 124.309 21.7604C123.145 21.7604 122.201 22.1846 122.201 22.7078C122.201 23.2311 123.145 23.6553 124.309 23.6553C125.473 23.6553 126.417 23.2311 126.417 22.7078Z" fill="black"/>
<path d="M126.417 22.7078C126.417 22.1846 125.473 21.7604 124.309 21.7604C123.145 21.7604 122.201 22.1846 122.201 22.7078C122.201 23.2311 123.145 23.6553 124.309 23.6553C125.473 23.6553 126.417 23.2311 126.417 22.7078Z" fill="url(#paint46_linear_314_719)"/>
<path d="M126.378 15.3348C126.22 14.8164 125.157 14.4534 124.004 14.524C122.85 14.5946 122.043 15.0722 122.2 15.5907C122.357 16.1091 123.42 16.4721 124.573 16.4015C125.726 16.3308 126.534 15.8533 126.378 15.3348Z" fill="black"/>
<path d="M126.378 15.3348C126.22 14.8164 125.157 14.4534 124.004 14.524C122.85 14.5946 122.043 15.0722 122.2 15.5907C122.357 16.1091 123.42 16.4721 124.573 16.4015C125.726 16.3308 126.534 15.8533 126.378 15.3348Z" fill="url(#paint47_linear_314_719)"/>
<path d="M124.711 7.27779C125.816 7.36802 126.619 7.86435 126.418 8.36064C126.217 8.85693 125.113 9.21786 124.009 9.12763C122.905 9.03739 122.101 8.54111 122.302 8.04482C122.503 7.50342 123.507 7.18755 124.711 7.27779Z" fill="black"/>
<path d="M124.711 7.27779C125.816 7.36802 126.619 7.86435 126.418 8.36064C126.217 8.85693 125.113 9.21786 124.009 9.12763C122.905 9.03739 122.101 8.54111 122.302 8.04482C122.503 7.50342 123.507 7.18755 124.711 7.27779Z" fill="url(#paint48_linear_314_719)"/>
<path d="M124.71 0.0139237C125.815 0.104157 126.618 0.600455 126.417 1.09674C126.216 1.59303 125.112 1.95394 124.008 1.86371C122.904 1.77347 122.1 1.2772 122.301 0.780919C122.502 0.284631 123.506 -0.0763103 124.71 0.0139237Z" fill="black"/>
<path d="M124.71 0.0139237C125.815 0.104157 126.618 0.600455 126.417 1.09674C126.216 1.59303 125.112 1.95394 124.008 1.86371C122.904 1.77347 122.1 1.2772 122.301 0.780919C122.502 0.284631 123.506 -0.0763103 124.71 0.0139237Z" fill="url(#paint49_linear_314_719)"/>
<path d="M138.263 29.0242C139.367 29.1145 140.17 29.6108 139.969 30.1071C139.768 30.6034 138.664 30.9643 137.56 30.8741C136.456 30.7838 135.653 30.2876 135.853 29.7913C136.054 29.2499 137.158 28.934 138.263 29.0242Z" fill="black"/>
<path d="M138.263 29.0242C139.367 29.1145 140.17 29.6108 139.969 30.1071C139.768 30.6034 138.664 30.9643 137.56 30.8741C136.456 30.7838 135.653 30.2876 135.853 29.7913C136.054 29.2499 137.158 28.934 138.263 29.0242Z" fill="url(#paint50_linear_314_719)"/>
<path d="M139.968 22.7078C139.968 22.1846 139.025 21.7604 137.86 21.7604C136.697 21.7604 135.752 22.1846 135.752 22.7078C135.752 23.2311 136.697 23.6553 137.86 23.6553C139.025 23.6553 139.968 23.2311 139.968 22.7078Z" fill="black"/>
<path d="M139.968 22.7078C139.968 22.1846 139.025 21.7604 137.86 21.7604C136.697 21.7604 135.752 22.1846 135.752 22.7078C135.752 23.2311 136.697 23.6553 137.86 23.6553C139.025 23.6553 139.968 23.2311 139.968 22.7078Z" fill="url(#paint51_linear_314_719)"/>
<path d="M139.929 15.3368C139.771 14.8183 138.708 14.4553 137.555 14.5259C136.401 14.5966 135.594 15.0742 135.751 15.5926C135.909 16.1111 136.971 16.4741 138.124 16.4034C139.278 16.3328 140.086 15.8553 139.929 15.3368Z" fill="black"/>
<path d="M139.929 15.3368C139.771 14.8183 138.708 14.4553 137.555 14.5259C136.401 14.5966 135.594 15.0742 135.751 15.5926C135.909 16.1111 136.971 16.4741 138.124 16.4034C139.278 16.3328 140.086 15.8553 139.929 15.3368Z" fill="url(#paint52_linear_314_719)"/>
<path d="M138.263 7.27779C139.367 7.36802 140.17 7.86435 139.969 8.36064C139.768 8.85693 138.664 9.21786 137.56 9.12763C136.456 9.03739 135.653 8.54111 135.853 8.04482C136.054 7.50342 137.158 7.18755 138.263 7.27779Z" fill="black"/>
<path d="M138.263 7.27779C139.367 7.36802 140.17 7.86435 139.969 8.36064C139.768 8.85693 138.664 9.21786 137.56 9.12763C136.456 9.03739 135.653 8.54111 135.853 8.04482C136.054 7.50342 137.158 7.18755 138.263 7.27779Z" fill="url(#paint53_linear_314_719)"/>
<path d="M138.263 0.0139237C139.367 0.104157 140.17 0.600455 139.969 1.09674C139.768 1.59303 138.664 1.95394 137.56 1.86371C136.456 1.77347 135.653 1.2772 135.853 0.780919C136.054 0.284631 137.158 -0.0763103 138.263 0.0139237Z" fill="black"/>
<path d="M138.263 0.0139237C139.367 0.104157 140.17 0.600455 139.969 1.09674C139.768 1.59303 138.664 1.95394 137.56 1.86371C136.456 1.77347 135.653 1.2772 135.853 0.780919C136.054 0.284631 137.158 -0.0763103 138.263 0.0139237Z" fill="url(#paint54_linear_314_719)"/>
</g>
<defs>
<linearGradient id="paint0_linear_314_719" x1="26.5517" y1="15.444" x2="66.6709" y2="43.0667" gradientUnits="userSpaceOnUse">
<stop offset="0.123666" stop-color="#88D8FF"/>
<stop offset="1" stop-color="#0179B4"/>
</linearGradient>
<linearGradient id="paint1_linear_314_719" x1="26.5517" y1="15.444" x2="66.6709" y2="43.0667" gradientUnits="userSpaceOnUse">
<stop offset="0.123666" stop-color="#88D8FF"/>
<stop offset="1" stop-color="#0179B4"/>
</linearGradient>
<linearGradient id="paint2_linear_314_719" x1="26.5517" y1="15.444" x2="66.6709" y2="43.0667" gradientUnits="userSpaceOnUse">
<stop offset="0.123666" stop-color="#88D8FF"/>
<stop offset="1" stop-color="#0179B4"/>
</linearGradient>
<linearGradient id="paint3_linear_314_719" x1="26.5517" y1="15.444" x2="66.6709" y2="43.0667" gradientUnits="userSpaceOnUse">
<stop offset="0.123666" stop-color="#88D8FF"/>
<stop offset="1" stop-color="#0179B4"/>
</linearGradient>
<linearGradient id="paint4_linear_314_719" x1="26.5517" y1="15.444" x2="66.6709" y2="43.0667" gradientUnits="userSpaceOnUse">
<stop offset="0.123666" stop-color="#88D8FF"/>
<stop offset="1" stop-color="#0179B4"/>
</linearGradient>
<linearGradient id="paint5_linear_314_719" x1="26.5517" y1="15.444" x2="66.6709" y2="43.0667" gradientUnits="userSpaceOnUse">
<stop offset="0.123666" stop-color="#88D8FF"/>
<stop offset="1" stop-color="#0179B4"/>
</linearGradient>
<linearGradient id="paint6_linear_314_719" x1="26.5517" y1="15.444" x2="66.6709" y2="43.0667" gradientUnits="userSpaceOnUse">
<stop offset="0.123666" stop-color="#88D8FF"/>
<stop offset="1" stop-color="#0179B4"/>
</linearGradient>
<linearGradient id="paint7_linear_314_719" x1="26.5517" y1="15.444" x2="66.6709" y2="43.0667" gradientUnits="userSpaceOnUse">
<stop offset="0.123666" stop-color="#88D8FF"/>
<stop offset="1" stop-color="#0179B4"/>
</linearGradient>
<linearGradient id="paint8_linear_314_719" x1="26.5517" y1="15.444" x2="66.6709" y2="43.0667" gradientUnits="userSpaceOnUse">
<stop offset="0.123666" stop-color="#88D8FF"/>
<stop offset="1" stop-color="#0179B4"/>
</linearGradient>
<linearGradient id="paint9_linear_314_719" x1="26.5517" y1="15.444" x2="66.6709" y2="43.0667" gradientUnits="userSpaceOnUse">
<stop offset="0.123666" stop-color="#88D8FF"/>
<stop offset="1" stop-color="#0179B4"/>
</linearGradient>
<linearGradient id="paint10_linear_314_719" x1="26.5517" y1="15.444" x2="66.6709" y2="43.0667" gradientUnits="userSpaceOnUse">
<stop offset="0.123666" stop-color="#88D8FF"/>
<stop offset="1" stop-color="#0179B4"/>
</linearGradient>
<linearGradient id="paint11_linear_314_719" x1="26.5517" y1="15.444" x2="66.6709" y2="43.0667" gradientUnits="userSpaceOnUse">
<stop offset="0.123666" stop-color="#88D8FF"/>
<stop offset="1" stop-color="#0179B4"/>
</linearGradient>
<linearGradient id="paint12_linear_314_719" x1="26.5517" y1="15.444" x2="66.6709" y2="43.0667" gradientUnits="userSpaceOnUse">
<stop offset="0.123666" stop-color="#88D8FF"/>
<stop offset="1" stop-color="#0179B4"/>
</linearGradient>
<linearGradient id="paint13_linear_314_719" x1="26.5517" y1="15.444" x2="66.6709" y2="43.0667" gradientUnits="userSpaceOnUse">
<stop offset="0.123666" stop-color="#88D8FF"/>
<stop offset="1" stop-color="#0179B4"/>
</linearGradient>
<linearGradient id="paint14_linear_314_719" x1="26.5517" y1="15.444" x2="66.6709" y2="43.0667" gradientUnits="userSpaceOnUse">
<stop offset="0.123666" stop-color="#88D8FF"/>
<stop offset="1" stop-color="#0179B4"/>
</linearGradient>
<linearGradient id="paint15_linear_314_719" x1="26.5517" y1="15.444" x2="66.6709" y2="43.0667" gradientUnits="userSpaceOnUse">
<stop offset="0.123666" stop-color="#88D8FF"/>
<stop offset="1" stop-color="#0179B4"/>
</linearGradient>
<linearGradient id="paint16_linear_314_719" x1="26.5517" y1="15.444" x2="66.6709" y2="43.0667" gradientUnits="userSpaceOnUse">
<stop offset="0.123666" stop-color="#88D8FF"/>
<stop offset="1" stop-color="#0179B4"/>
</linearGradient>
<linearGradient id="paint17_linear_314_719" x1="26.5517" y1="15.444" x2="66.6709" y2="43.0667" gradientUnits="userSpaceOnUse">
<stop offset="0.123666" stop-color="#88D8FF"/>
<stop offset="1" stop-color="#0179B4"/>
</linearGradient>
<linearGradient id="paint18_linear_314_719" x1="26.5517" y1="15.444" x2="66.6709" y2="43.0667" gradientUnits="userSpaceOnUse">
<stop offset="0.123666" stop-color="#88D8FF"/>
<stop offset="1" stop-color="#0179B4"/>
</linearGradient>
<linearGradient id="paint19_linear_314_719" x1="26.5517" y1="15.444" x2="66.6709" y2="43.0667" gradientUnits="userSpaceOnUse">
<stop offset="0.123666" stop-color="#88D8FF"/>
<stop offset="1" stop-color="#0179B4"/>
</linearGradient>
<linearGradient id="paint20_linear_314_719" x1="26.5517" y1="15.444" x2="66.6709" y2="43.0667" gradientUnits="userSpaceOnUse">
<stop offset="0.123666" stop-color="#88D8FF"/>
<stop offset="1" stop-color="#0179B4"/>
</linearGradient>
<linearGradient id="paint21_linear_314_719" x1="26.5517" y1="15.444" x2="66.6709" y2="43.0667" gradientUnits="userSpaceOnUse">
<stop offset="0.123666" stop-color="#88D8FF"/>
<stop offset="1" stop-color="#0179B4"/>
</linearGradient>
<linearGradient id="paint22_linear_314_719" x1="26.5517" y1="15.444" x2="66.6709" y2="43.0667" gradientUnits="userSpaceOnUse">
<stop offset="0.123666" stop-color="#88D8FF"/>
<stop offset="1" stop-color="#0179B4"/>
</linearGradient>
<linearGradient id="paint23_linear_314_719" x1="26.5517" y1="15.444" x2="66.6709" y2="43.0667" gradientUnits="userSpaceOnUse">
<stop offset="0.123666" stop-color="#88D8FF"/>
<stop offset="1" stop-color="#0179B4"/>
</linearGradient>
<linearGradient id="paint24_linear_314_719" x1="26.5517" y1="15.444" x2="66.6709" y2="43.0667" gradientUnits="userSpaceOnUse">
<stop offset="0.123666" stop-color="#88D8FF"/>
<stop offset="1" stop-color="#0179B4"/>
</linearGradient>
<linearGradient id="paint25_linear_314_719" x1="26.5517" y1="15.444" x2="66.6709" y2="43.0667" gradientUnits="userSpaceOnUse">
<stop offset="0.123666" stop-color="#88D8FF"/>
<stop offset="1" stop-color="#0179B4"/>
</linearGradient>
<linearGradient id="paint26_linear_314_719" x1="26.5517" y1="15.444" x2="66.6709" y2="43.0667" gradientUnits="userSpaceOnUse">
<stop offset="0.123666" stop-color="#88D8FF"/>
<stop offset="1" stop-color="#0179B4"/>
</linearGradient>
<linearGradient id="paint27_linear_314_719" x1="26.5517" y1="15.444" x2="66.6709" y2="43.0667" gradientUnits="userSpaceOnUse">
<stop offset="0.123666" stop-color="#88D8FF"/>
<stop offset="1" stop-color="#0179B4"/>
</linearGradient>
<linearGradient id="paint28_linear_314_719" x1="26.5517" y1="15.444" x2="66.6709" y2="43.0667" gradientUnits="userSpaceOnUse">
<stop offset="0.123666" stop-color="#88D8FF"/>
<stop offset="1" stop-color="#0179B4"/>
</linearGradient>
<linearGradient id="paint29_linear_314_719" x1="26.5517" y1="15.444" x2="66.6709" y2="43.0667" gradientUnits="userSpaceOnUse">
<stop offset="0.123666" stop-color="#88D8FF"/>
<stop offset="1" stop-color="#0179B4"/>
</linearGradient>
<linearGradient id="paint30_linear_314_719" x1="26.5517" y1="15.444" x2="66.6709" y2="43.0667" gradientUnits="userSpaceOnUse">
<stop offset="0.123666" stop-color="#88D8FF"/>
<stop offset="1" stop-color="#0179B4"/>
</linearGradient>
<linearGradient id="paint31_linear_314_719" x1="26.5517" y1="15.444" x2="66.6709" y2="43.0667" gradientUnits="userSpaceOnUse">
<stop offset="0.123666" stop-color="#88D8FF"/>
<stop offset="1" stop-color="#0179B4"/>
</linearGradient>
<linearGradient id="paint32_linear_314_719" x1="26.5517" y1="15.444" x2="66.6709" y2="43.0667" gradientUnits="userSpaceOnUse">
<stop offset="0.123666" stop-color="#88D8FF"/>
<stop offset="1" stop-color="#0179B4"/>
</linearGradient>
<linearGradient id="paint33_linear_314_719" x1="26.5517" y1="15.444" x2="66.6709" y2="43.0667" gradientUnits="userSpaceOnUse">
<stop offset="0.123666" stop-color="#88D8FF"/>
<stop offset="1" stop-color="#0179B4"/>
</linearGradient>
<linearGradient id="paint34_linear_314_719" x1="26.5517" y1="15.444" x2="66.6709" y2="43.0667" gradientUnits="userSpaceOnUse">
<stop offset="0.123666" stop-color="#88D8FF"/>
<stop offset="1" stop-color="#0179B4"/>
</linearGradient>
<linearGradient id="paint35_linear_314_719" x1="26.5517" y1="15.444" x2="66.6709" y2="43.0667" gradientUnits="userSpaceOnUse">
<stop offset="0.123666" stop-color="#88D8FF"/>
<stop offset="1" stop-color="#0179B4"/>
</linearGradient>
<linearGradient id="paint36_linear_314_719" x1="26.5517" y1="15.444" x2="66.6709" y2="43.0667" gradientUnits="userSpaceOnUse">
<stop offset="0.123666" stop-color="#88D8FF"/>
<stop offset="1" stop-color="#0179B4"/>
</linearGradient>
<linearGradient id="paint37_linear_314_719" x1="26.5517" y1="15.444" x2="66.6709" y2="43.0667" gradientUnits="userSpaceOnUse">
<stop offset="0.123666" stop-color="#88D8FF"/>
<stop offset="1" stop-color="#0179B4"/>
</linearGradient>
<linearGradient id="paint38_linear_314_719" x1="26.5517" y1="15.444" x2="66.6709" y2="43.0667" gradientUnits="userSpaceOnUse">
<stop offset="0.123666" stop-color="#88D8FF"/>
<stop offset="1" stop-color="#0179B4"/>
</linearGradient>
<linearGradient id="paint39_linear_314_719" x1="26.5517" y1="15.444" x2="66.6709" y2="43.0667" gradientUnits="userSpaceOnUse">
<stop offset="0.123666" stop-color="#88D8FF"/>
<stop offset="1" stop-color="#0179B4"/>
</linearGradient>
<linearGradient id="paint40_linear_314_719" x1="26.5517" y1="15.444" x2="66.6709" y2="43.0667" gradientUnits="userSpaceOnUse">
<stop offset="0.123666" stop-color="#88D8FF"/>
<stop offset="1" stop-color="#0179B4"/>
</linearGradient>
<linearGradient id="paint41_linear_314_719" x1="26.5517" y1="15.444" x2="66.6709" y2="43.0667" gradientUnits="userSpaceOnUse">
<stop offset="0.123666" stop-color="#88D8FF"/>
<stop offset="1" stop-color="#0179B4"/>
</linearGradient>
<linearGradient id="paint42_linear_314_719" x1="26.5517" y1="15.444" x2="66.6709" y2="43.0667" gradientUnits="userSpaceOnUse">
<stop offset="0.123666" stop-color="#88D8FF"/>
<stop offset="1" stop-color="#0179B4"/>
</linearGradient>
<linearGradient id="paint43_linear_314_719" x1="26.5517" y1="15.444" x2="66.6709" y2="43.0667" gradientUnits="userSpaceOnUse">
<stop offset="0.123666" stop-color="#88D8FF"/>
<stop offset="1" stop-color="#0179B4"/>
</linearGradient>
<linearGradient id="paint44_linear_314_719" x1="26.5517" y1="15.444" x2="66.6709" y2="43.0667" gradientUnits="userSpaceOnUse">
<stop offset="0.123666" stop-color="#88D8FF"/>
<stop offset="1" stop-color="#0179B4"/>
</linearGradient>
<linearGradient id="paint45_linear_314_719" x1="26.5517" y1="15.444" x2="66.6709" y2="43.0667" gradientUnits="userSpaceOnUse">
<stop offset="0.123666" stop-color="#88D8FF"/>
<stop offset="1" stop-color="#0179B4"/>
</linearGradient>
<linearGradient id="paint46_linear_314_719" x1="26.5517" y1="15.444" x2="66.6709" y2="43.0667" gradientUnits="userSpaceOnUse">
<stop offset="0.123666" stop-color="#88D8FF"/>
<stop offset="1" stop-color="#0179B4"/>
</linearGradient>
<linearGradient id="paint47_linear_314_719" x1="26.5517" y1="15.444" x2="66.6709" y2="43.0667" gradientUnits="userSpaceOnUse">
<stop offset="0.123666" stop-color="#88D8FF"/>
<stop offset="1" stop-color="#0179B4"/>
</linearGradient>
<linearGradient id="paint48_linear_314_719" x1="26.5517" y1="15.444" x2="66.6709" y2="43.0667" gradientUnits="userSpaceOnUse">
<stop offset="0.123666" stop-color="#88D8FF"/>
<stop offset="1" stop-color="#0179B4"/>
</linearGradient>
<linearGradient id="paint49_linear_314_719" x1="26.5517" y1="15.444" x2="66.6709" y2="43.0667" gradientUnits="userSpaceOnUse">
<stop offset="0.123666" stop-color="#88D8FF"/>
<stop offset="1" stop-color="#0179B4"/>
</linearGradient>
<linearGradient id="paint50_linear_314_719" x1="26.5517" y1="15.444" x2="66.6709" y2="43.0667" gradientUnits="userSpaceOnUse">
<stop offset="0.123666" stop-color="#88D8FF"/>
<stop offset="1" stop-color="#0179B4"/>
</linearGradient>
<linearGradient id="paint51_linear_314_719" x1="26.5517" y1="15.444" x2="66.6709" y2="43.0667" gradientUnits="userSpaceOnUse">
<stop offset="0.123666" stop-color="#88D8FF"/>
<stop offset="1" stop-color="#0179B4"/>
</linearGradient>
<linearGradient id="paint52_linear_314_719" x1="26.5517" y1="15.444" x2="66.6709" y2="43.0667" gradientUnits="userSpaceOnUse">
<stop offset="0.123666" stop-color="#88D8FF"/>
<stop offset="1" stop-color="#0179B4"/>
</linearGradient>
<linearGradient id="paint53_linear_314_719" x1="26.5517" y1="15.444" x2="66.6709" y2="43.0667" gradientUnits="userSpaceOnUse">
<stop offset="0.123666" stop-color="#88D8FF"/>
<stop offset="1" stop-color="#0179B4"/>
</linearGradient>
<linearGradient id="paint54_linear_314_719" x1="26.5517" y1="15.444" x2="66.6709" y2="43.0667" gradientUnits="userSpaceOnUse">
<stop offset="0.123666" stop-color="#88D8FF"/>
<stop offset="1" stop-color="#0179B4"/>
</linearGradient>
</defs>
</svg>
