<svg width="32" height="32" viewBox="0 0 32 32" fill="none" xmlns="http://www.w3.org/2000/svg">
<g id="directions_car">
<path id="icon" d="M8 25.3332V26.6665C8 27.0443 7.87222 27.361 7.61667 27.6165C7.36111 27.8721 7.04444 27.9998 6.66667 27.9998H5.33333C4.95556 27.9998 4.63889 27.8721 4.38333 27.6165C4.12778 27.361 4 27.0443 4 26.6665V15.9998L6.8 7.99984C6.93333 7.59984 7.17222 7.27762 7.51667 7.03317C7.86111 6.78873 8.24444 6.6665 8.66667 6.6665H23.3333C23.7556 6.6665 24.1389 6.78873 24.4833 7.03317C24.8278 7.27762 25.0667 7.59984 25.2 7.99984L28 15.9998V26.6665C28 27.0443 27.8722 27.361 27.6167 27.6165C27.3611 27.8721 27.0444 27.9998 26.6667 27.9998H25.3333C24.9556 27.9998 24.6389 27.8721 24.3833 27.6165C24.1278 27.361 24 27.0443 24 26.6665V25.3332H8ZM7.73333 13.3332H24.2667L22.8667 9.33317H9.13333L7.73333 13.3332ZM10 21.3332C10.5556 21.3332 11.0278 21.1387 11.4167 20.7498C11.8056 20.3609 12 19.8887 12 19.3332C12 18.7776 11.8056 18.3054 11.4167 17.9165C11.0278 17.5276 10.5556 17.3332 10 17.3332C9.44444 17.3332 8.97222 17.5276 8.58333 17.9165C8.19444 18.3054 8 18.7776 8 19.3332C8 19.8887 8.19444 20.3609 8.58333 20.7498C8.97222 21.1387 9.44444 21.3332 10 21.3332ZM22 21.3332C22.5556 21.3332 23.0278 21.1387 23.4167 20.7498C23.8056 20.3609 24 19.8887 24 19.3332C24 18.7776 23.8056 18.3054 23.4167 17.9165C23.0278 17.5276 22.5556 17.3332 22 17.3332C21.4444 17.3332 20.9722 17.5276 20.5833 17.9165C20.1944 18.3054 20 18.7776 20 19.3332C20 19.8887 20.1944 20.3609 20.5833 20.7498C20.9722 21.1387 21.4444 21.3332 22 21.3332ZM6.66667 22.6665H25.3333V15.9998H6.66667V22.6665Z" fill="#00A4F4"/>
</g>
</svg>
