<svg width="1461" height="632" viewBox="0 0 1461 632" fill="none" xmlns="http://www.w3.org/2000/svg">
<path id="Vector 1" d="M1459 2.96411C1395.83 2.96411 1332.54 -5.73933 1276.56 29.1371C1241.71 50.8471 1219.14 84.6951 1199.58 119.973C1174.9 164.473 1158.07 216.06 1119.37 249.298C1080.67 282.536 1032.8 302.613 985.422 313.345C928.009 326.35 873.598 288.198 834.85 249.606C787.23 202.178 753.739 137.796 752.944 69.4743C752.68 46.7751 769.995 21.6701 794.205 18.8219C836.031 13.9012 842.133 138.989 843.164 163.389C844.518 195.434 846.381 230.017 836.39 260.999C815.572 325.55 715.826 348.688 700.666 352.22C685.506 355.751 582.253 382.206 482.199 398.715C382.144 415.224 266.553 405.689 166.737 438.129C116.136 454.574 63.2372 485.208 30.4836 527.887C5.37046 560.61 5.40187 590.238 2.00121 629.346" stroke="url(#paint0_linear_314_724)" stroke-width="4" stroke-linecap="round" stroke-dasharray="12 12"/>
<defs>
<linearGradient id="paint0_linear_314_724" x1="2.43742" y1="528.286" x2="1410.2" y2="1.99936" gradientUnits="userSpaceOnUse">
<stop stop-color="#00A3F4" stop-opacity="0.42"/>
<stop offset="0.563099" stop-color="#00A4F4" stop-opacity="0.11"/>
<stop offset="0.887261" stop-color="#00A4F4" stop-opacity="0.6"/>
</linearGradient>
</defs>
</svg>
